<?xml version="1.0" encoding="UTF-8" standalone="no"?>
<!-- Generator: Adobe Illustrator 16.0.0, SVG Export Plug-In . SVG Version: 6.00 Build 0)  -->
<svg xmlns:dc="http://purl.org/dc/elements/1.1/" xmlns:cc="http://creativecommons.org/ns#" xmlns:rdf="http://www.w3.org/1999/02/22-rdf-syntax-ns#" xmlns:svg="http://www.w3.org/2000/svg" xmlns="http://www.w3.org/2000/svg" xmlns:xlink="http://www.w3.org/1999/xlink" xmlns:sodipodi="http://sodipodi.sourceforge.net/DTD/sodipodi-0.dtd" xmlns:inkscape="http://www.inkscape.org/namespaces/inkscape" version="1.1" id="Ebene_1" x="0px" y="0px" width="334.14401" height="463.89902" viewBox="0 0 334.144 463.89901" enable-background="new 0 0 595.28 841.89" xml:space="preserve" inkscape:version="0.48.5 r10040" sodipodi:docname="Teebeutelfixed2.svg" inkscape:export-filename="/tmp/92/teebeutel1.png" inkscape:export-xdpi="90.011787" inkscape:export-ydpi="90.011787"><metadata id="metadata87"><rdf:RDF><cc:Work rdf:about=""><dc:format>image/svg+xml</dc:format><dc:type rdf:resource="http://purl.org/dc/dcmitype/StillImage"/><dc:title/></cc:Work></rdf:RDF></metadata><defs id="defs85"><linearGradient inkscape:collect="always" id="linearGradient6287"><stop style="stop-color:#000000;stop-opacity:1;" offset="0" id="stop6289"/><stop style="stop-color:#000000;stop-opacity:0;" offset="1" id="stop6291"/></linearGradient><linearGradient inkscape:collect="always" xlink:href="#linearGradient6287" id="linearGradient6293" x1="241.81801" y1="429.34448" x2="264.992" y2="429.34448" gradientUnits="userSpaceOnUse"/></defs><sodipodi:namedview pagecolor="#ffffff" bordercolor="#666666" borderopacity="1" objecttolerance="10" gridtolerance="10" guidetolerance="10" inkscape:pageopacity="0" inkscape:pageshadow="2" inkscape:window-width="1364" inkscape:window-height="715" id="namedview83" showgrid="false" fit-margin-top="0" fit-margin-left="0" fit-margin-right="0" fit-margin-bottom="0" inkscape:zoom="0.79286936" inkscape:cx="280.78515" inkscape:cy="166.34952" inkscape:window-x="0" inkscape:window-y="0" inkscape:window-maximized="0" inkscape:current-layer="Ebene_1"/><path id="line71" style="font-size:medium;font-style:normal;font-variant:normal;font-weight:normal;font-stretch:normal;text-indent:0;text-align:start;text-decoration:none;line-height:normal;letter-spacing:normal;word-spacing:normal;text-transform:none;direction:ltr;block-progression:tb;writing-mode:lr-tb;text-anchor:start;baseline-shift:baseline;color:#000000;fill:#ea5b0c;fill-opacity:1;stroke:none;stroke-width:1.29999997999999994;marker:none;visibility:visible;display:inline;overflow:visible;enable-background:accumulate;font-family:Sans;-inkscape-font-specification:Sans;stroke-opacity:1;stroke-miterlimit:4;stroke-dasharray:none" d="m 250.9375,437.53125 3.21875,2.125 -1.78125,2.6875 -3.21875,-2.125 1.78125,-2.6875 z m -6.53125,-4.28125 2.375,1.5625 L 245,437.5 l -2.375,-1.5625 1.78125,-2.6875 z M 85.031246,431.5625 c -4.26136,0.0565 -6.5905,1.447 -7,4.1875 -0.197,1.266 -0.0652,2.416 0.46875,3.375 0.545,0.973 1.45575,1.75275 2.71875,2.34375 1.273,0.619 2.57775,1.11975 3.96875,1.46875 1.36,0.347 3.0355,0.66575 5.0625,0.96875 0.942,0.151 2.3905,0.3235 4.3125,0.5625 1.916,0.249 3.3575,0.44275 4.3125,0.59375 l 1.750004,-11.5 -10.687504,-1.59375 c -1.84725,-0.2775 -3.4858,-0.42509 -4.90625,-0.40625 z m 152.843754,-2.625 2.34375,1.5625 -1.78125,2.6875 -2.375,-1.5625 1.8125,-2.6875 z m -6.53125,-4.3125 2.34375,1.5625 -1.78125,2.6875 -2.375,-1.5625 1.8125,-2.6875 z m -6.5625,-4.3125 2.34375,1.5625 -1.78125,2.6875 L 223,423 l 1.78125,-2.6875 z M 218.25,416 l 2.375,1.5625 -1.8125,2.6875 -2.375,-1.5625 L 218.25,416 z m -6.5625,-4.3125 2.375,1.5625 -1.78125,2.6875 -2.375,-1.5625 1.78125,-2.6875 z m -6.53125,-4.3125 2.375,1.5625 -1.78125,2.6875 -2.375,-1.5625 1.78125,-2.6875 z m -7.21875,-4.75 3.0625,2 -1.78125,2.6875 -3.0625,-2 1.78125,-2.6875 z M 91.374996,336.40625 c 0.6647,-0.0175 1.33347,-0.0198 2.03125,0 1.86075,0.0528 3.83875,0.24525 5.9375,0.5625 l 79.187504,11.90625 -3.625,24.1875 L 98.218746,361.5 c -2.145,-0.316 -4.095,-0.14725 -5.875,0.46875 -1.785,0.612 -2.80275,1.86725 -3.09375,3.78125 -0.18,1.174 0.0145,2.2655 0.5625,3.1875 0.525,0.915 1.18375,1.64225 1.96875,2.15625 0.785,0.514 1.8485,0.97225 3.1875,1.40625 1.327,0.438 2.35675,0.71275 3.09375,0.84375 0.727,0.135 1.65374,0.28275 2.843754,0.46875 l 72.25,10.875 -3.71875,24.5 -102.718754,-15.46875 3.6875,-24.5 11.75,1.78125 c -4.281,-1.661 -7.2475,-4.0185 -8.9375,-7.0625 -1.686,-3.024 -2.23925,-6.493 -1.65625,-10.375 0.972,-6.425 3.7335,-11.1085 8.3125,-14.0625 2.99447,-1.94053 6.84709,-2.97148 11.5,-3.09375 z m -5.4375,-42.96875 18.687504,2.8125 -0.65625,4.375 57.78125,8.6875 c 0.859,0.135 1.5585,0.213 2.0625,0.25 0.514,0.033 1.03,0.0267 1.625,-0.0312 0.591,-0.047 1.08,-0.24375 1.375,-0.59375 0.32,-0.347 0.49475,-0.82425 0.59375,-1.40625 0.086,-0.588 0.097,-1.1905 0,-1.8125 l 16.6875,2.5 c 0.668,3.646 0.62575,8.09575 -0.15625,13.34375 -0.402,2.644 -1.10475,4.86325 -2.09375,6.65625 -1.006,1.776 -2.09825,3.13625 -3.28125,4.03125 -1.188,0.885 -2.62975,1.52525 -4.34375,1.90625 -1.721,0.363 -3.306,0.50875 -4.75,0.46875 -1.44,-0.058 -3.063,-0.225 -4.875,-0.5 l -64.21875,-9.6875 -0.562504,3.78125 -18.6875,-2.8125 0.5625,-3.78125 -21.84375,-3.28125 3.59375,-23.8125 21.84375,3.28125 0.65625,-4.375 z m 17.406254,-65.03125 c 1.20859,-0.0406 2.48075,0.0522 3.8125,0.25 l 34.375,5.1875 -3.59375,23.9375 -24.59375,-3.6875 c -1.228,-0.195 -2.26,-0.2945 -3.125,-0.3125 -0.861,-0.014 -1.73075,0.249 -2.59375,0.75 -0.868,0.494 -1.3925,1.33175 -1.5625,2.46875 -0.178,1.184 0.19275,2.311 1.09375,3.375 0.92,1.08 2.27775,1.75925 4.09375,2.03125 l 78.53125,11.8125 -3.6875,24.5 L 83.406246,283.25 l 3.71875,-24.5 11.40625,1.71875 c -4.493,-2.082 -7.47175,-4.47675 -8.96875,-7.21875 -1.495,-2.752 -1.97725,-6.0405 -1.40625,-9.8125 0.687,-4.571 2.686,-8.36225 6,-11.40625 2.49825,-2.29125 5.56171,-3.50331 9.187504,-3.625 z M 122.15625,187.5 c -4.03408,-0.007 -6.27631,1.57725 -6.75,4.6875 -0.577,3.83 2.12275,6.19575 8.09375,7.09375 l 50.1875,7.53125 c 2.738,0.41 4.80075,0.2045 6.21875,-0.6875 1.412,-0.885 2.253,-2.179 2.5,-3.875 0.258,-1.689 -0.168,-3.14825 -1.25,-4.40625 -1.098,-1.258 -3.008,-2.086 -5.75,-2.5 L 125.25,187.78125 c -1.12069,-0.16781 -2.16281,-0.27974 -3.09375,-0.28125 z m 3.6875,-24.6875 c 2.25083,-0.0113 4.60875,0.1915 7.0625,0.5625 l 41.21875,6.1875 c 10.731,1.618 18.3145,5.45075 22.8125,11.46875 4.52,6.025 6.03725,14.05575 4.53125,24.09375 -3.083,20.447 -15.303,29.06275 -36.625,25.84375 l -41.1875,-6.1875 c -9.813,-1.486 -17.17875,-5.406 -22.09375,-11.75 -4.937014,-6.332 -6.678004,-14.25 -5.250004,-23.75 1.44,-9.537 5.452254,-16.60975 12.031254,-21.21875 4.9245,-3.459 10.74752,-5.21606 17.5,-5.25 z m 6.3125,-46.125 c -0.42088,0.0113 -0.79125,0.0525 -1.09375,0.125 -0.609,0.142 -1.3035,0.37025 -2.0625,0.65625 -0.771,0.282 -1.34825,0.7105 -1.78125,1.3125 -0.403,0.619 -0.70075,1.3975 -0.84375,2.3125 -0.574,3.829 2.6955,6.26775 9.8125,7.34375 l 45,6.78125 c 3.686,0.562 6.4915,0.52415 8.4375,-0.0937 1.936,-0.609 3.08325,-2.01025 3.40625,-4.15625 0.291,-1.911 -0.4525,-3.4 -2.1875,-4.5 -1.725,-1.107 -4.7315,-1.99725 -9.0625,-2.65625 L 138.1875,117.25 c -1.07,-0.148 -1.82025,-0.23725 -2.28125,-0.28125 -0.466,-0.05 -1.2305,-0.13175 -2.3125,-0.21875 -0.545,-0.0505 -1.01662,-0.0738 -1.4375,-0.0625 z m 127.65625,-22 5.71875,0.78125 -0.6875,4.75 -5.6875,-0.8125 0.65625,-4.71875 z m -21.40625,-3.03125 5.71875,0.8125 -0.6875,4.75 -5.6875,-0.8125 0.65625,-4.75 z M 132.25,91.5625 c 2.92,0.047 6.13225,0.31275 9.65625,0.84375 L 179.5,98.0625 c 0.09,0.01 0.19475,0.0395 0.34375,0.0625 3.271,0.505 5.77475,0.8845 7.46875,1.1875 1.711,0.313 4.07075,0.8255 7.09375,1.5625 3.009,0.727 5.3305,1.49325 6.9375,2.28125 1.603,0.767 3.46,1.86825 5.5,3.28125 2.059,1.402 3.5245,2.937 4.4375,4.625 0.908,1.706 1.59875,3.84075 2.09375,6.34375 0.478,2.496 0.49235,5.2575 0.0312,8.3125 -0.936,6.173 -3.384,10.585 -7.375,13.25 l 16.75,2.5 -3.75,24.9375 -115.40625,-17.375 3.75,-24.9375 5.5625,0.84375 c -3.964,-4.376 -5.4925,-9.59675 -4.5625,-15.71875 0.488,-3.291 1.445,-6.128 2.875,-8.5 1.438,-2.361 3.1685,-4.22525 5.1875,-5.53125 2.008,-1.309 4.43075,-2.26875 7.21875,-2.84375 2.801,-0.582 5.65975,-0.82925 8.59375,-0.78125 z m 99.125,-16.25 c -0.13013,0.0207 -0.265,0.063 -0.375,0.125 -0.225,0.129 -0.39325,0.329 -0.53125,0.625 -0.142,0.293 -0.26775,0.58425 -0.34375,0.90625 -0.076,0.317 -0.15475,0.7225 -0.21875,1.1875 -0.032,0.225 -0.07,0.552 -0.125,1 -0.053,0.442 -0.092,0.775 -0.125,1 l 2.6875,0.40625 0.34375,-2.5 c 0.243,-1.719 -0.0583,-2.632 -0.90625,-2.75 -0.1505,-0.023 -0.27612,-0.0208 -0.40625,0 z M 247.59375,71.9375 253.25,72.75 252.4375,89.78125 256.5,73.1875 262.125,74 l -7,24.875 -7.65625,-1.09375 0.125,-25.84375 z m -16.75,-1.03125 c 0.51252,-0.002 1.02875,0.0467 1.59375,0.125 4.581,0.649 6.5775,3.231 5.9375,7.75 l -0.25,1.75 c -0.306,2.153 -0.5325,3.60725 -0.6875,4.40625 l -8.28125,-1.15625 -0.46875,3.34375 c -0.016,0.102 -0.0519,0.29325 -0.0937,0.53125 -0.038,0.24 -0.0425,0.40225 -0.0625,0.53125 -0.055,0.379 -0.0858,0.722 -0.0937,1 -0.003,0.272 0.0155,0.54375 0.0625,0.84375 0.044,0.289 0.1385,0.5185 0.3125,0.6875 0.176,0.168 0.41975,0.2695 0.71875,0.3125 0.307,0.042 0.56125,-0.0288 0.78125,-0.21875 0.223,-0.189 0.4215,-0.477 0.5625,-0.875 0.136,-0.397 0.2445,-0.7445 0.3125,-1.0625 0.064,-0.315 0.1165,-0.7125 0.1875,-1.1875 0.13,-0.933 0.1975,-1.43925 0.1875,-1.53125 l 5.65625,0.78125 -0.1875,1.375 c -0.186,1.328 -0.45425,2.44075 -0.78125,3.34375 -0.335,0.905 -0.8165,1.7 -1.4375,2.375 -0.617,0.678 -1.4335,1.10775 -2.4375,1.34375 -1.013,0.236 -2.22625,0.2605 -3.65625,0.0625 -0.85,-0.121 -1.61925,-0.32175 -2.28125,-0.59375 -0.667,-0.273 -1.187,-0.55625 -1.625,-0.90625 -0.432,-0.348 -0.80975,-0.774 -1.09375,-1.25 -0.284,-0.479 -0.488,-0.9665 -0.625,-1.4375 -0.144,-0.474 -0.24025,-1.00575 -0.28125,-1.59375 -0.042,-0.588 -0.031,-1.129 0,-1.625 0.031,-0.493 0.0722,-1.031 0.15625,-1.625 l 1.375,-9.59375 c 0.311,-2.198 1.17075,-3.79825 2.59375,-4.78125 1.06575,-0.74025 2.3687,-1.11797 3.90625,-1.125 z m -112.875,-17.53125 102.75,15.5 -3.6875,24.5 -102.75,-15.46875 3.6875,-24.53125 z m -18.343754,-2.75 12.031254,1.8125 -3.6875,24.5 -12.031254,-1.8125 3.6875,-24.5 z M 174.40625,16.65625 c 1.046,4.447 2.593,7.575 4.625,9.375 2.041,1.799 4.60675,2.93925 7.71875,3.40625 l 11.96875,1.8125 c 6.079,0.918 9.3925,-0.471 9.9375,-4.125 0.149,-1 -0.01,-1.91575 -0.4375,-2.71875 -0.44,-0.817 -1.06,-1.4395 -1.875,-1.9375 -0.803,-0.501 -1.59325,-0.89425 -2.40625,-1.15625 -0.803,-0.249 -1.639,-0.4315 -2.5,-0.5625 L 174.40625,16.65625 z M 66.593746,0 -3.5842708e-6,83.53125 l 0,380.375 71.8124995842708,0 c -3.33244,-1.88176 -6.03444,-4.34312 -8.09375,-7.375 -4.188,-6.163 -5.5325,-14.1005 -4.0625,-23.8125 2.969,-19.729 14.15275,-28.1075 33.59375,-25.1875 l 7.468754,1.125 c 9.27,1.396 15.6215,2.44925 19.0625,3.15625 l -5.375,35.59375 14.375,2.15625 c 0.459,0.067 1.21275,0.193 2.21875,0.375 1.022,0.186 1.828,0.298 2.375,0.375 1.64,0.256 3.03775,0.3995 4.21875,0.4375 1.177,0.03 2.4075,-0.0297 3.6875,-0.21875 1.247,-0.185 2.261,-0.64725 3,-1.40625 0.75,-0.75 1.21425,-1.74225 1.40625,-3.03125 0.198,-1.318 -0.0842,-2.4855 -0.90625,-3.4375 -0.806,-0.969 -2.06125,-1.72775 -3.78125,-2.34375 -1.688,-0.608 -3.23975,-1.05475 -4.59375,-1.34375 -1.359,-0.306 -3.05675,-0.60725 -5.09375,-0.90625 -4.04,-0.616 -6.21875,-0.922 -6.59375,-0.875 l 3.65625,-24.375 5.8125,0.875 c 5.702,0.854 10.498,2.037 14.375,3.5 3.884,1.478 7.27825,3.57725 10.15625,6.28125 2.885,2.682 4.8325,6.18525 5.8125,10.53125 0.984,4.341 0.9935,9.61825 0.0625,15.78125 -0.553,3.657 -1.439,6.896 -2.625,9.75 -0.69216,1.6341 -1.4311,3.07412 -2.21875,4.375 l 174.40625,0 0,-217.09375 c -10.9604,35.65274 -22.95685,57.85298 -27.125,65 l 15.4375,10.21875 0.4375,2.59375 -11.5625,-7.6875 -2.78125,4.15625 15.5,10.28125 0.84375,5 -18.375,-12.21875 -2.78125,4.1875 22.28125,14.8125 0.84375,5 -25.15625,-16.75 -2.78125,4.1875 29.09375,19.34375 0,0.0312 L 266.75,447.5625 254.375,439.375 276.75,405.4375 258.3125,393.25 l 26.375,-40 -17.8125,-11.78125 -26.375,39.96875 -19.875,-13.125 -22.375,33.9375 -12.875,-8.53125 61.3125,-92.59375 0.125,-0.0312 31.125,20.6875 2.78125,-4.15625 -27.8125,-18.5 4.5,-1.46875 25.34375,16.875 2.78125,-4.15625 -22.0625,-14.65625 4.5,-1.46875 19.59375,13.03125 2.78125,-4.15625 -16.3125,-10.84375 2.3125,-0.75 19.84375,13.125 c 5.81979,-9.97074 26.43443,-48.62494 37.96875,-113.15625 l 0,-107.96875 L 256.0625,0 231.09375,0 227.4375,24.21875 216.75,22.625 c 2.874,1.268 5.359,3.57225 7.375,6.90625 2.02,3.333 2.769,6.72525 2.25,10.15625 -0.365,2.463 -0.94025,4.59325 -1.65625,6.40625 -0.705,1.803 -1.85675,3.54375 -3.46875,5.21875 -1.593,1.665 -3.608,2.9345 -6,3.8125 -2.401,0.881 -5.51575,1.39575 -9.34375,1.59375 -3.833,0.183 -8.28675,-0.0838 -13.34375,-0.84375 -9.08,-1.369 -15.69175,-3.741 -19.84375,-7.125 -3.574,-2.92 -6.295,-7.475 -8.125,-13.625 -0.932,-3.128 -2.33925,-10.00925 -4.28125,-20.65625 -0.057,-0.003 -0.12175,-0.01135 -0.21875,-0.03125 -1.463,-0.219 -2.6585,-0.385 -3.5625,-0.5 -0.923,-0.121 -1.95475,-0.25525 -3.09375,-0.40625 -1.155,-0.145 -2.062,-0.2545 -2.75,-0.3125 -0.685,-0.05 -1.45225,-0.095 -2.28125,-0.125 -0.841,-0.04 -1.4835,-0.04 -1.9375,0 -0.446,0.05 -0.938,0.15625 -1.5,0.28125 -0.552,0.118 -0.9955,0.294 -1.3125,0.5 -0.318,0.215 -0.597,0.467 -0.875,0.75 -0.271,0.286 -0.49225,0.6485 -0.65625,1.0625 -0.148,0.424 -0.26475,0.874 -0.34375,1.375 -0.496,3.384 1.11275,5.3685 4.84375,5.9375 l 6.90625,1.03125 -3.59375,23.8125 c -0.774,-0.078 -1.87675,-0.2195 -3.34375,-0.4375 -9.768,-1.467 -16.56125,-4.8655 -20.40625,-10.1875 -3.84,-5.318 -4.9405,-13.391 -3.3125,-24.25 0.539,-3.5120002 1.537,-6.864 3,-10 C 126.35908,1.94244 126.89143,0.96111004 127.46875,0 L 66.593746,0 z M 254.061,399.653 l -17.822,-11.776 4.141,-6.271 17.815,11.777 z"/></svg>